<mxfile host="app.diagrams.net" agent="Mozilla/5.0 (Windows NT 10.0; Win64; x64) AppleWebKit/537.36 (KHTML, like Gecko) Chrome/139.0.0.0 Safari/537.36" version="28.1.2">
  <diagram name="Page-1" id="w_9z_CsoFbj1ioF1p8VJ">
    <mxGraphModel dx="1042" dy="527" grid="1" gridSize="10" guides="1" tooltips="1" connect="1" arrows="1" fold="1" page="1" pageScale="1" pageWidth="827" pageHeight="1169" math="0" shadow="0">
      <root>
        <mxCell id="0" />
        <mxCell id="1" parent="0" />
        <mxCell id="WCEBS_F5K5oNMO1We3N5-1" value="Admin" style="swimlane;" vertex="1" parent="1">
          <mxGeometry x="180" y="48" width="150" height="412" as="geometry" />
        </mxCell>
        <mxCell id="WCEBS_F5K5oNMO1We3N5-3" value="Activity Diagram - Melakukan Login" style="shape=umlFrame;whiteSpace=wrap;html=1;pointerEvents=0;width=210;height=22;" vertex="1" parent="1">
          <mxGeometry x="160" y="8" width="470" height="472" as="geometry" />
        </mxCell>
        <mxCell id="WCEBS_F5K5oNMO1We3N5-7" style="edgeStyle=orthogonalEdgeStyle;rounded=0;orthogonalLoop=1;jettySize=auto;html=1;entryX=0.5;entryY=0;entryDx=0;entryDy=0;" edge="1" parent="1" source="WCEBS_F5K5oNMO1We3N5-4" target="WCEBS_F5K5oNMO1We3N5-6">
          <mxGeometry relative="1" as="geometry" />
        </mxCell>
        <mxCell id="WCEBS_F5K5oNMO1We3N5-4" value="" style="ellipse;html=1;shape=startState;fillColor=#000000;strokeColor=#ff0000;" vertex="1" parent="1">
          <mxGeometry x="240" y="78" width="30" height="30" as="geometry" />
        </mxCell>
        <mxCell id="WCEBS_F5K5oNMO1We3N5-40" style="edgeStyle=orthogonalEdgeStyle;rounded=0;orthogonalLoop=1;jettySize=auto;html=1;entryX=0;entryY=0.5;entryDx=0;entryDy=0;" edge="1" parent="1" source="WCEBS_F5K5oNMO1We3N5-6" target="WCEBS_F5K5oNMO1We3N5-9">
          <mxGeometry relative="1" as="geometry" />
        </mxCell>
        <mxCell id="WCEBS_F5K5oNMO1We3N5-6" value="Membuka Website SPK" style="html=1;dashed=0;whiteSpace=wrap;" vertex="1" parent="1">
          <mxGeometry x="205" y="127" width="100" height="50" as="geometry" />
        </mxCell>
        <mxCell id="WCEBS_F5K5oNMO1We3N5-8" value="Sistem" style="swimlane;" vertex="1" parent="1">
          <mxGeometry x="330" y="48" width="280" height="412" as="geometry" />
        </mxCell>
        <mxCell id="WCEBS_F5K5oNMO1We3N5-9" value="Menampilkan Halaman Login" style="html=1;dashed=0;whiteSpace=wrap;" vertex="1" parent="WCEBS_F5K5oNMO1We3N5-8">
          <mxGeometry x="32" y="79" width="100" height="50" as="geometry" />
        </mxCell>
        <mxCell id="WCEBS_F5K5oNMO1We3N5-20" value="" style="edgeStyle=orthogonalEdgeStyle;rounded=0;orthogonalLoop=1;jettySize=auto;html=1;" edge="1" parent="WCEBS_F5K5oNMO1We3N5-8" source="WCEBS_F5K5oNMO1We3N5-15" target="WCEBS_F5K5oNMO1We3N5-19">
          <mxGeometry relative="1" as="geometry" />
        </mxCell>
        <mxCell id="WCEBS_F5K5oNMO1We3N5-44" style="edgeStyle=orthogonalEdgeStyle;rounded=0;orthogonalLoop=1;jettySize=auto;html=1;entryX=0;entryY=0.5;entryDx=0;entryDy=0;" edge="1" parent="WCEBS_F5K5oNMO1We3N5-8" source="WCEBS_F5K5oNMO1We3N5-15" target="WCEBS_F5K5oNMO1We3N5-28">
          <mxGeometry relative="1" as="geometry" />
        </mxCell>
        <mxCell id="WCEBS_F5K5oNMO1We3N5-15" value="Akun Valid?" style="rhombus;whiteSpace=wrap;html=1;dashed=0;" vertex="1" parent="WCEBS_F5K5oNMO1We3N5-8">
          <mxGeometry x="42" y="182" width="80" height="80" as="geometry" />
        </mxCell>
        <mxCell id="WCEBS_F5K5oNMO1We3N5-27" style="edgeStyle=orthogonalEdgeStyle;rounded=0;orthogonalLoop=1;jettySize=auto;html=1;entryX=0.5;entryY=0;entryDx=0;entryDy=0;" edge="1" parent="WCEBS_F5K5oNMO1We3N5-8" source="WCEBS_F5K5oNMO1We3N5-19" target="WCEBS_F5K5oNMO1We3N5-26">
          <mxGeometry relative="1" as="geometry" />
        </mxCell>
        <mxCell id="WCEBS_F5K5oNMO1We3N5-19" value="Menampilkan Halaman Dashboard" style="whiteSpace=wrap;html=1;dashed=0;" vertex="1" parent="WCEBS_F5K5oNMO1We3N5-8">
          <mxGeometry x="22" y="292" width="120" height="60" as="geometry" />
        </mxCell>
        <mxCell id="WCEBS_F5K5oNMO1We3N5-21" value="Ya" style="text;html=1;align=center;verticalAlign=middle;resizable=0;points=[];autosize=1;strokeColor=none;fillColor=none;" vertex="1" parent="WCEBS_F5K5oNMO1We3N5-8">
          <mxGeometry x="80" y="260" width="40" height="30" as="geometry" />
        </mxCell>
        <mxCell id="WCEBS_F5K5oNMO1We3N5-26" value="" style="ellipse;html=1;shape=endState;fillColor=#000000;strokeColor=#ff0000;" vertex="1" parent="WCEBS_F5K5oNMO1We3N5-8">
          <mxGeometry x="67" y="372" width="30" height="30" as="geometry" />
        </mxCell>
        <mxCell id="WCEBS_F5K5oNMO1We3N5-23" value="Tidak" style="text;html=1;align=center;verticalAlign=middle;resizable=0;points=[];autosize=1;strokeColor=none;fillColor=none;" vertex="1" parent="WCEBS_F5K5oNMO1We3N5-8">
          <mxGeometry x="112" y="197" width="50" height="30" as="geometry" />
        </mxCell>
        <mxCell id="WCEBS_F5K5oNMO1We3N5-45" style="edgeStyle=orthogonalEdgeStyle;rounded=0;orthogonalLoop=1;jettySize=auto;html=1;exitX=0.5;exitY=0;exitDx=0;exitDy=0;entryX=1;entryY=0.5;entryDx=0;entryDy=0;" edge="1" parent="WCEBS_F5K5oNMO1We3N5-8" source="WCEBS_F5K5oNMO1We3N5-28" target="WCEBS_F5K5oNMO1We3N5-9">
          <mxGeometry relative="1" as="geometry" />
        </mxCell>
        <mxCell id="WCEBS_F5K5oNMO1We3N5-28" value="Menampilkan Pesan Gagal Login" style="html=1;dashed=0;whiteSpace=wrap;" vertex="1" parent="WCEBS_F5K5oNMO1We3N5-8">
          <mxGeometry x="162" y="197" width="100" height="50" as="geometry" />
        </mxCell>
        <mxCell id="WCEBS_F5K5oNMO1We3N5-42" style="edgeStyle=orthogonalEdgeStyle;rounded=0;orthogonalLoop=1;jettySize=auto;html=1;entryX=0;entryY=0.5;entryDx=0;entryDy=0;" edge="1" parent="1" source="WCEBS_F5K5oNMO1We3N5-11" target="WCEBS_F5K5oNMO1We3N5-15">
          <mxGeometry relative="1" as="geometry" />
        </mxCell>
        <mxCell id="WCEBS_F5K5oNMO1We3N5-11" value="Mengisi Username &amp;amp; Password" style="html=1;dashed=0;whiteSpace=wrap;" vertex="1" parent="1">
          <mxGeometry x="205" y="245" width="100" height="50" as="geometry" />
        </mxCell>
        <mxCell id="WCEBS_F5K5oNMO1We3N5-41" style="edgeStyle=orthogonalEdgeStyle;rounded=0;orthogonalLoop=1;jettySize=auto;html=1;entryX=0.5;entryY=0;entryDx=0;entryDy=0;exitX=0.5;exitY=1;exitDx=0;exitDy=0;" edge="1" parent="1" source="WCEBS_F5K5oNMO1We3N5-9" target="WCEBS_F5K5oNMO1We3N5-11">
          <mxGeometry relative="1" as="geometry" />
        </mxCell>
      </root>
    </mxGraphModel>
  </diagram>
</mxfile>
